<mxfile host="app.diagrams.net" modified="2022-04-26T05:37:51.566Z" agent="5.0 (X11; Linux x86_64) AppleWebKit/537.36 (KHTML, like Gecko) Chrome/99.0.4844.84 Safari/537.36" etag="ABzRzN43bP2IsKT7802B" version="17.4.6" type="github">
  <diagram id="Mql6CIYCx42zSlWvQ3Nl" name="Page-1">
    <mxGraphModel dx="2500" dy="1975" grid="1" gridSize="10" guides="1" tooltips="1" connect="1" arrows="1" fold="1" page="1" pageScale="1" pageWidth="827" pageHeight="1169" math="0" shadow="0">
      <root>
        <mxCell id="0" />
        <mxCell id="1" parent="0" />
        <mxCell id="Ey2o-sFHqQqLRV7utY9t-1" value="do_remove_conflicting_framebuffers" style="text;html=1;align=center;verticalAlign=middle;resizable=0;points=[];autosize=1;strokeColor=none;fillColor=none;" vertex="1" parent="1">
          <mxGeometry x="450" y="380" width="210" height="20" as="geometry" />
        </mxCell>
        <mxCell id="Ey2o-sFHqQqLRV7utY9t-2" value="do_register_framebuffer" style="text;html=1;align=center;verticalAlign=middle;resizable=0;points=[];autosize=1;strokeColor=none;fillColor=none;" vertex="1" parent="1">
          <mxGeometry x="240" y="330" width="140" height="20" as="geometry" />
        </mxCell>
        <mxCell id="Ey2o-sFHqQqLRV7utY9t-3" value="remove_conflicting_framebuffers" style="text;html=1;align=center;verticalAlign=middle;resizable=0;points=[];autosize=1;strokeColor=none;fillColor=none;" vertex="1" parent="1">
          <mxGeometry x="224" y="440" width="190" height="20" as="geometry" />
        </mxCell>
        <mxCell id="Ey2o-sFHqQqLRV7utY9t-4" value="remove_conflicting_pci_framebuffers" style="text;html=1;align=center;verticalAlign=middle;resizable=0;points=[];autosize=1;strokeColor=none;fillColor=none;" vertex="1" parent="1">
          <mxGeometry x="-40" y="440" width="210" height="20" as="geometry" />
        </mxCell>
        <mxCell id="Ey2o-sFHqQqLRV7utY9t-5" value="drm_fb_helper_remove_conflicting_pci_framebuffers" style="text;html=1;align=center;verticalAlign=middle;resizable=0;points=[];autosize=1;strokeColor=none;fillColor=none;" vertex="1" parent="1">
          <mxGeometry x="-370" y="440" width="300" height="20" as="geometry" />
        </mxCell>
        <mxCell id="Ey2o-sFHqQqLRV7utY9t-6" value="register_framebuffer" style="text;html=1;align=center;verticalAlign=middle;resizable=0;points=[];autosize=1;strokeColor=none;fillColor=none;" vertex="1" parent="1">
          <mxGeometry x="-10" y="330" width="120" height="20" as="geometry" />
        </mxCell>
        <mxCell id="Ey2o-sFHqQqLRV7utY9t-7" value="record_efifb_bar_resource&lt;br&gt;dev_info(&amp;amp;dev-&amp;gt;dev, &quot;BAR %d: assigned to efifb\n&quot;, idx);" style="text;html=1;align=center;verticalAlign=middle;resizable=0;points=[];autosize=1;strokeColor=none;fillColor=none;" vertex="1" parent="1">
          <mxGeometry x="-170" y="-270" width="320" height="30" as="geometry" />
        </mxCell>
        <mxCell id="Ey2o-sFHqQqLRV7utY9t-8" value="一个开启efifb也可以切换tty的设备" style="text;html=1;align=center;verticalAlign=middle;resizable=0;points=[];autosize=1;strokeColor=none;fillColor=none;" vertex="1" parent="1">
          <mxGeometry x="-290" y="-370" width="190" height="20" as="geometry" />
        </mxCell>
        <mxCell id="Ey2o-sFHqQqLRV7utY9t-9" value="efifb_fixup_resources" style="text;html=1;align=center;verticalAlign=middle;resizable=0;points=[];autosize=1;strokeColor=none;fillColor=none;" vertex="1" parent="1">
          <mxGeometry x="-413" y="-265" width="130" height="20" as="geometry" />
        </mxCell>
        <mxCell id="Ey2o-sFHqQqLRV7utY9t-20" value="" style="edgeStyle=orthogonalEdgeStyle;rounded=0;orthogonalLoop=1;jettySize=auto;html=1;" edge="1" parent="1" source="Ey2o-sFHqQqLRV7utY9t-17" target="Ey2o-sFHqQqLRV7utY9t-19">
          <mxGeometry relative="1" as="geometry" />
        </mxCell>
        <mxCell id="Ey2o-sFHqQqLRV7utY9t-17" value="&lt;div&gt;(fb_do_apertures_overlap(gen_aper, a) ||&lt;/div&gt;&lt;div&gt;&lt;span&gt;			&lt;/span&gt;(primary &amp;amp;&amp;amp; gen_aper &amp;amp;&amp;amp; gen_aper-&amp;gt;count &amp;amp;&amp;amp;&lt;/div&gt;&lt;div&gt;&lt;span&gt;			&lt;/span&gt; gen_aper-&amp;gt;ranges[0].base == VGA_FB_PHYS))&lt;/div&gt;" style="rhombus;whiteSpace=wrap;html=1;" vertex="1" parent="1">
          <mxGeometry x="790" y="260" width="390" height="80" as="geometry" />
        </mxCell>
        <mxCell id="Ey2o-sFHqQqLRV7utY9t-22" style="edgeStyle=orthogonalEdgeStyle;rounded=0;orthogonalLoop=1;jettySize=auto;html=1;entryX=1.014;entryY=0.55;entryDx=0;entryDy=0;entryPerimeter=0;" edge="1" parent="1" source="Ey2o-sFHqQqLRV7utY9t-19" target="Ey2o-sFHqQqLRV7utY9t-21">
          <mxGeometry relative="1" as="geometry">
            <Array as="points">
              <mxPoint x="1230" y="410" />
              <mxPoint x="1230" y="192" />
            </Array>
          </mxGeometry>
        </mxCell>
        <mxCell id="Ey2o-sFHqQqLRV7utY9t-19" value="&lt;div&gt;&lt;font color=&quot;#ff3333&quot;&gt;printk(KERN_INFO &quot;fb: switching to %s from %s\n&quot;,&lt;/font&gt;&lt;/div&gt;&lt;div&gt;&lt;font color=&quot;#ff3333&quot;&gt;&lt;span&gt;			&lt;/span&gt;&amp;nbsp; &amp;nbsp; &amp;nbsp; &amp;nbsp;name, registered_fb[i]-&amp;gt;fix.id);&lt;/font&gt;&lt;/div&gt;do_unregister_framebuffer" style="text;html=1;align=left;verticalAlign=middle;resizable=0;points=[];autosize=1;strokeColor=none;fillColor=none;" vertex="1" parent="1">
          <mxGeometry x="840" y="390" width="290" height="50" as="geometry" />
        </mxCell>
        <mxCell id="Ey2o-sFHqQqLRV7utY9t-23" value="" style="edgeStyle=orthogonalEdgeStyle;rounded=0;orthogonalLoop=1;jettySize=auto;html=1;" edge="1" parent="1" source="Ey2o-sFHqQqLRV7utY9t-21" target="Ey2o-sFHqQqLRV7utY9t-17">
          <mxGeometry relative="1" as="geometry" />
        </mxCell>
        <mxCell id="Ey2o-sFHqQqLRV7utY9t-21" value="for_each_registered_fb" style="text;html=1;align=center;verticalAlign=middle;resizable=0;points=[];autosize=1;strokeColor=none;fillColor=none;" vertex="1" parent="1">
          <mxGeometry x="915" y="180" width="140" height="20" as="geometry" />
        </mxCell>
      </root>
    </mxGraphModel>
  </diagram>
</mxfile>
